<?xml version="1.0" ?>
<!DOCTYPE svg  PUBLIC '-//W3C//DTD SVG 1.1//EN'  'http://www.w3.org/Graphics/SVG/1.1/DTD/svg11.dtd'>
<!-- Uploaded to: SVG Repo, www.svgrepo.com, Generator: SVG Repo Mixer Tools -->
<svg fill="#000000" width="800px" height="800px" viewBox="0 0 512 512" version="1.1" xml:space="preserve" xmlns="http://www.w3.org/2000/svg" xmlns:xlink="http://www.w3.org/1999/xlink">
<g id="_x37_15_x2C__idea_x2C__innovation_x2C__light_x2C__solution_x2C__startup">
<g>
<path d="M325.329,405.8h-44.906h-0.093h-48.673h-0.079h-44.92v22.367h138.671V405.8    z M325.329,434.716H186.658v22.366h30.475h0.093h77.549h0.079h30.475V434.716z M291.499,463.633H220.5v22.366h70.999V463.633z     M320.375,149.336c1.533-2.583,2.943-5.113,4.221-7.59c8.814-16.987,11.477-30.301,5.899-35.865    c-5.578-5.592-18.892-2.928-35.867,5.884c-2.462,1.279-5.005,2.716-7.588,4.234c1.983,8.681,3.594,18.319,4.714,28.624    c4.938,0.531,9.744,1.197,14.351,1.943C311.084,147.365,315.85,148.297,320.375,149.336z M217.372,248.971    c2.463-1.277,4.992-2.688,7.589-4.232c-1.997-8.682-3.595-18.293-4.713-28.598c-3.901-0.426-7.695-0.932-11.369-1.491    c-6.071-0.905-11.836-1.997-17.254-3.248c-1.53,2.609-2.943,5.14-4.22,7.589c-8.814,16.986-11.476,30.3-5.912,35.893    C187.085,260.446,200.398,257.785,217.372,248.971z M225.667,157.535c1.225-1.277,2.464-2.527,3.715-3.779    c1.251-1.253,2.516-2.504,3.768-3.703c-2.345,0.16-4.647,0.32-6.923,0.534C226.012,152.877,225.826,155.193,225.667,157.535z     M282.62,206.98c-1.265,1.277-2.517,2.503-3.768,3.728c2.329-0.159,4.646-0.346,6.923-0.558c0.212-2.29,0.4-4.58,0.56-6.923    C285.11,204.479,283.871,205.73,282.62,206.98z M250.842,134.052c-6.855-5.459-13.566-10.277-20.009-14.431    c-0.479,2.262-0.946,4.58-1.384,6.949c-1.013,5.511-1.866,11.315-2.557,17.414c4.447-0.4,9.013-0.693,13.659-0.906    C243.986,139.936,247.42,136.928,250.842,134.052z M261.293,142.785c-1.771-1.544-3.543-3.063-5.299-4.527    c-1.756,1.465-3.515,2.983-5.285,4.527c1.744-0.026,3.515-0.053,5.285-0.053C257.778,142.732,259.535,142.759,261.293,142.785z     M298.116,180.381c-1.465-1.757-2.981-3.541-4.513-5.298c0.026,1.757,0.04,3.515,0.04,5.298c0,1.758-0.014,3.543-0.04,5.273    C295.135,183.896,296.651,182.139,298.116,180.381z M316.729,205.544c-4.128-6.443-8.96-13.153-14.405-19.997    c-2.876,3.408-5.886,6.844-9.026,10.277c-0.214,4.66-0.507,9.213-0.894,13.659C301.1,208.499,309.26,207.167,316.729,205.544z     M287.026,244.738c2.597,1.544,5.126,2.955,7.602,4.232c16.976,8.814,30.289,11.476,35.867,5.912    c5.577-5.593,2.915-18.906-5.899-35.893c-1.277-2.449-2.688-4.979-4.221-7.563c-8.692,1.971-18.317,3.567-28.621,4.713    c-0.946,8.574-2.211,16.668-3.755,24.15C287.691,241.81,287.359,243.273,287.026,244.738z M261.159,226.686    c6.856,5.457,13.566,10.277,19.996,14.431l0.452-2.13c1.425-6.896,2.598-14.324,3.503-22.207    c-4.461,0.374-9.015,0.693-13.661,0.906C268.016,220.828,264.581,223.809,261.159,226.686z M250.708,217.979    c1.771,1.544,3.529,3.035,5.285,4.498c1.756-1.463,3.529-2.954,5.299-4.498c-1.758,0.025-3.515,0.025-5.299,0.025    C254.223,218.004,252.465,218.004,250.708,217.979z M225.147,193.162c2.85,3.063,5.805,6.15,8.867,9.213    c3.062,3.035,6.125,6.018,9.2,8.867c4.192,0.159,8.467,0.238,12.78,0.238c4.328,0,8.6-0.079,12.78-0.238    c3.076-2.85,6.152-5.832,9.214-8.867c3.063-3.063,6.018-6.15,8.867-9.213c0.159-4.18,0.238-8.467,0.238-12.781    c0-4.34-0.079-8.6-0.238-12.779c-2.85-3.089-5.805-6.15-8.867-9.213c-3.062-3.063-6.124-6.02-9.2-8.867    c-4.193-0.159-8.466-0.24-12.793-0.24c-4.313,0-8.587,0.081-12.78,0.24c-3.076,2.848-6.138,5.805-9.2,8.867    s-6.017,6.124-8.867,9.213c-0.16,4.18-0.24,8.439-0.24,12.779C224.907,184.695,224.987,188.955,225.147,193.162z M213.883,180.381    c1.465,1.758,2.969,3.515,4.513,5.273c-0.026-1.73-0.039-3.516-0.039-5.273c0-1.783,0.012-3.541,0.039-5.298    C216.853,176.84,215.349,178.624,213.883,180.381z M195.258,155.219c4.142,6.444,8.974,13.154,14.419,19.998    c2.876-3.41,5.884-6.87,9.026-10.306c0.212-4.633,0.505-9.187,0.892-13.633C210.902,152.265,202.741,153.595,195.258,155.219z     M187.404,141.746c1.277,2.477,2.69,5.007,4.22,7.59c8.681-1.997,18.305-3.596,28.624-4.713    c0.731-6.711,1.663-13.154,2.783-19.226c0.599-3.222,1.237-6.362,1.93-9.398c-2.597-1.544-5.125-2.955-7.589-4.234    c-16.974-8.812-30.287-11.476-35.879-5.884C175.928,111.445,178.59,124.759,187.404,141.746z M250.828,226.686    c-3.408-2.877-6.842-5.857-10.278-9c-4.646-0.213-9.212-0.506-13.659-0.906c0.999,8.707,2.331,16.854,3.954,24.337    C237.276,236.963,243.986,232.143,250.828,226.686z M293.298,164.911c3.141,3.462,6.15,6.896,9.026,10.306    c5.445-6.844,10.277-13.58,14.418-19.998c-3.728-0.824-7.629-1.57-11.689-2.209c-4.074-0.666-8.295-1.252-12.648-1.731    C292.791,155.725,293.084,160.278,293.298,164.911z M278.839,150.053c1.265,1.199,2.517,2.45,3.781,3.703    c1.251,1.252,2.49,2.502,3.701,3.779c-0.16-2.342-0.334-4.658-0.546-6.948C283.499,150.4,281.182,150.213,278.839,150.053z     M261.159,134.052c3.422,2.876,6.856,5.884,10.29,9.026c4.646,0.213,9.2,0.506,13.647,0.906    c-0.985-8.707-2.316-16.883-3.941-24.338C274.726,123.774,268.016,128.619,261.159,134.052z M218.704,195.824    c-3.143-3.434-6.15-6.869-9.026-10.277c-5.445,6.844-10.277,13.554-14.419,19.997c4.606,0.984,9.479,1.863,14.593,2.636    c3.155,0.479,6.417,0.905,9.744,1.304C219.209,205.037,218.904,200.484,218.704,195.824z M229.381,206.98    c-1.251-1.25-2.49-2.502-3.701-3.753c0.16,2.343,0.332,4.659,0.545,6.923c2.276,0.212,4.578,0.398,6.923,0.558    C231.897,209.483,230.632,208.232,229.381,206.98z M245.063,77.844c-0.639-0.639-1.53-1.013-2.502-1.013    c-0.972,0-1.863,0.374-2.504,1.013c-0.639,0.639-1.025,1.544-1.025,2.502c0,0.986,0.386,1.863,1.025,2.502    c0.174,0.162,0.348,0.322,0.534,0.453l0.891,0.427c0.2,0.054,0.4,0.106,0.613,0.134h0.014h0.053l0,0l0.174,0.025h0.012h0.028    h0.052l0,0h0.041h0.026h0.026h0.04c0.972,0,1.864-0.398,2.502-1.039c0.639-0.639,1.039-1.516,1.039-2.502V80.32v-0.053l0,0    l-0.014-0.055l0,0v-0.026V80.16v-0.026v-0.026v-0.028l0,0v-0.053l0,0L246.076,80v-0.025v-0.027l0,0V79.92l-0.014-0.027v-0.025    v-0.026v-0.026v-0.028h-0.012V79.76v-0.026l-0.014-0.026v-0.025C245.902,78.988,245.557,78.35,245.063,77.844z M251.733,76.166    l0.066,0.16l0.026,0.053l0.041,0.106l0.026,0.053l0,0l0.119,0.293l0.014,0.055v0.026l0.026,0.053l0.026,0.053l0,0l0.095,0.318    l0.012,0.029l0.014,0.025l0.039,0.134l0.014,0.053l0.014,0.026v0.025l0.026,0.082l0,0l0.012,0.053l0.081,0.318l0,0l0.014,0.055    l0.012,0.079l0.014,0.054l0.013,0.053l0,0l0.014,0.08l0.012,0.054l0,0l0.014,0.053v0.053v0.028l0.014,0.053l0.012,0.053v0.027    l0.014,0.053l0.012,0.053l0,0l0.014,0.08v0.053l0,0l0.014,0.081v0.026l0.012,0.026v0.079l0.014,0.027v0.027v0.078v0.029    l0.013,0.025v0.079l0.014,0.026v0.028v0.052v0.027v0.053l0.013,0.055v0.025v0.053v0.055l0.014,0.026v0.052v0.055v0.027v0.052    v0.053v0.028v0.053v0.053l0,0v0.08v0.053c0,2.795-1.132,5.326-2.942,7.137c-1.823,1.811-4.354,2.955-7.135,2.955h-0.04h-0.026    h-0.026h-0.041h-0.04h-0.026h-0.026h-0.026h-0.014h-0.026h-0.014h-0.026h-0.026h-0.026h-0.014h-0.026h-0.04h-0.026h-0.026    l-0.014-0.026h-0.026h-0.041h-0.052h-0.041h-0.026h-0.041h-0.012h-0.014h-0.04h-0.026l-0.2-0.026h-0.039h-0.028    c-0.332-0.055-0.665-0.107-0.999-0.16c-3.034,6.125-5.738,13.793-8.014,22.686c7.549,4.74,15.484,10.412,23.564,16.908    c8.094-6.496,16.03-12.168,23.577-16.908c-0.758-2.928-1.544-5.725-2.383-8.361c-5.776-18.238-13.299-29.528-21.194-29.528    c-1.105,0-2.183,0.214-3.222,0.64L251.733,76.166z M352.94,165.871c0.639-0.641,1.038-1.518,1.038-2.504    c0-0.959-0.399-1.864-1.038-2.503s-1.53-1.038-2.503-1.038c-0.972,0-1.863,0.399-2.504,1.038c-0.252,0.267-0.479,0.56-0.65,0.905    l-0.255,0.639l-0.052,0.268l-0.08,0.691c0,0.986,0.398,1.863,1.037,2.504c0.641,0.639,1.532,1.037,2.504,1.037h0.041h0.012h0.041    h0.026h0.014h0.038h0.015h0.04l0,0h0.039h0.027l0.027-0.027h0.025h0.015h0.038h0.067h0.026l0.094-0.025h0.039l0,0h0.041    C351.809,166.722,352.447,166.35,352.94,165.871z M356.429,171.488c-1.225,0.904-2.649,1.543-4.208,1.811h-0.039l-0.385,0.053    l-0.067,0.027h-0.015h-0.078h-0.041l-0.04,0.027h-0.079h-0.014h-0.066h-0.053h-0.028l-0.079,0.025h-0.026h-0.054h-0.065h-0.015    h-0.08h-0.039h-0.04l-0.081,0.027h-0.012h-0.066h-0.066h-0.015h-0.079h-0.026h-0.054h-0.08c-2.782,0-5.311-1.145-7.137-2.955    c-1.811-1.812-2.941-4.34-2.941-7.137c0-0.373,0.014-0.746,0.054-1.118c-4.966-1.997-10.663-3.834-16.947-5.459    c-4.739,7.563-10.411,15.498-16.909,23.591c6.498,8.068,12.17,16.004,16.909,23.564c2.915-0.746,5.71-1.544,8.359-2.395    c18.239-5.753,29.529-13.287,29.529-21.17c0-1.704-0.56-3.408-1.61-5.059C358.919,174.018,357.799,172.738,356.429,171.488z     M260.014,289.976c0.999,0.985,2.356,1.599,3.849,1.599c1.504,0,2.861-0.613,3.846-1.572c0.986-1.011,1.585-2.369,1.585-3.86    s-0.599-2.851-1.57-3.835c-0.253-0.24-0.52-0.479-0.813-0.664l0,0l-0.253-0.16l-0.026-0.027h-0.026l-0.04-0.027h-0.015    l-0.038-0.025h-0.014l-0.041-0.027l-0.012-0.025h-0.041l-0.014-0.027l-0.053-0.027h-0.014l-0.039-0.026h-0.014l-0.053-0.026    l-0.055-0.026l0,0l-0.053-0.026h-0.014l-0.053-0.026l0,0l-0.053-0.028h-0.014l-0.041-0.025h-0.012h-0.055l-0.013-0.027    l-0.066-0.025c-0.267-0.081-0.546-0.16-0.824-0.241h-0.028l-0.119-0.026l0,0h-0.107h-0.012l-0.055-0.025h-0.026h-0.026h-0.04    h-0.026h-0.041l-0.012-0.027h-0.053h-0.015h-0.052l0,0h-0.055h-0.013h-0.054h-0.013h-0.055h-0.026l-0.026-0.025h-0.04h-0.026    h-0.04h-0.013h-0.055h-0.012h-0.066c-1.492,0-2.85,0.611-3.835,1.57c-0.985,1.01-1.584,2.369-1.584,3.86    c0.053,0.745,0.053,0.905,0.212,1.491l0.015,0.053l0,0l0.014,0.08l0,0l0.026,0.053l0,0    C258.963,288.644,259.428,289.389,260.014,289.976z M265.938,274.346c1.053,0.186,2.037,0.506,2.97,0.932l0.026,0.027    c4.101-6.656,7.723-16.057,10.637-27.452c-7.547-4.739-15.482-10.411-23.577-16.907c-8.081,6.471-16.015,12.168-23.564,16.881    c0.706,2.795,1.465,5.457,2.264,7.988c4.792,15.31,10.823,25.8,17.281,28.942l0.012-0.134l0,0l0.014-0.106l0.012-0.053    l0.014-0.079v-0.055l0.014-0.078l0.012-0.081l0.014-0.053l0.012-0.081l0.014-0.053l0.014-0.106l0,0l0.026-0.134l0,0l0.026-0.131    l0.014-0.029l0.012-0.078l0.014-0.055l0.012-0.079l0.026-0.081l0.014-0.053l0.026-0.078v-0.028l0.026-0.104l0.014-0.027    l0.026-0.106v-0.026l0.041-0.107v-0.026l0.04-0.106V282.6l0.026-0.08l0.026-0.053l0.014-0.079l0.026-0.081l0.012-0.025    l0.041-0.107h0.014l0.039-0.133l0,0l0.04-0.105v-0.028l0.041-0.105l0.026-0.026l0.026-0.08l0.028-0.053l0.012-0.081l0.041-0.053    l0.053-0.159h0.014l0.053-0.107l0,0l0.041-0.133h0.014l0.039-0.107l0.026-0.026l0.04-0.079l0.026-0.055l0.028-0.053l0.026-0.078    l0.026-0.029l0.04-0.104l0.012-0.026l0.067-0.107l0,0l0.054-0.107l0.013-0.025l0.052-0.081l0.014-0.026l0.041-0.078l0.04-0.055    l0.026-0.053l0.041-0.079l0.026-0.028l0.053-0.079l0.014-0.026l0.067-0.107l0.065-0.106h0.014l0.052-0.079l0.028-0.055    l0.039-0.053l0.041-0.053l0.026-0.054l0.054-0.079l0.026-0.026l0.053-0.081l0.014-0.025l0.079-0.081l0.067-0.105l0.014-0.026    l0.067-0.08l0.026-0.027l0.053-0.053l0.04-0.054l0.041-0.053l0.041-0.054l0.026-0.053l0.066-0.053l0.012-0.027l0.081-0.106    l0.079-0.081l0.014-0.025l0.067-0.08l0.04-0.025l0.053-0.055l0.041-0.053l0.039-0.026l0.054-0.081l0.026-0.025l0.079-0.082h0.014    l0.081-0.078c2.183-2.184,5.178-3.541,8.467-3.541h0.078h0.067h0.014h0.053l0.066,0.025h0.041h0.026h0.066h0.053h0.014h0.066    h0.067h0.012h0.055h0.066h0.026h0.041l0.078,0.027h0.026h0.028h0.065h0.066h0.014h0.067l0.052,0.025h0.015h0.053h0.08h0.013    l0.055,0.029h0.066h0.026h0.04l0.053,0.025h0.066l0,0h0.067l0.066,0.026h0.013h0.054h0.067h0.026l0.038,0.026H265.938z     M269.04,167.334c-3.328-3.328-7.947-5.404-13.046-5.404c-5.085,0-9.705,2.076-13.046,5.404    c-3.329,3.329-5.392,7.936-5.392,13.047c0,5.087,2.063,9.693,5.392,13.049c3.341,3.326,7.961,5.378,13.046,5.378    c5.099,0,9.718-2.052,13.046-5.378c3.329-3.355,5.393-7.962,5.393-13.049C274.433,175.27,272.369,170.663,269.04,167.334z     M255.994,155.379c6.896,0,13.139,2.824,17.653,7.322c4.527,4.555,7.337,10.783,7.337,17.68c0,6.869-2.81,13.127-7.311,17.654    c-4.54,4.525-10.783,7.32-17.679,7.32c-6.882,0-13.127-2.795-17.652-7.32c-4.527-4.527-7.323-10.785-7.323-17.654    c0-6.896,2.795-13.125,7.309-17.652C242.867,158.203,249.112,155.379,255.994,155.379z M200.903,264.6    c1.692-0.639,3.582,0.215,4.22,1.893c0.653,1.677-0.2,3.566-1.875,4.232c-7.27,2.769-13.899,3.755-19.532,3.354    c-6.43-0.452-11.648-2.743-15.137-6.362c-3.355-3.488-5.724-8.574-6.363-14.832c-0.56-5.325,0.132-11.557,2.543-18.265    c0.598-1.706,2.476-2.609,4.18-1.997c1.691,0.613,2.583,2.477,1.983,4.18c-2.063,5.779-2.662,10.997-2.209,15.418    c0.479,4.737,2.183,8.492,4.554,10.969c2.383,2.449,6.124,4.048,10.917,4.394C188.896,267.902,194.58,267.023,200.903,264.6z     M339.946,103.938c-1.265-1.278-1.265-3.355,0-4.633c1.279-1.277,3.354-1.277,4.633,0c4.367,4.365,5.858,10.996,4.806,19.251    c-1.01,7.854-4.392,17.386-9.784,27.878c-0.825,1.623-2.796,2.235-4.394,1.438c-1.598-0.825-2.236-2.796-1.411-4.395    c5.06-9.852,8.202-18.637,9.12-25.748C343.701,111.553,342.796,106.787,339.946,103.938z M168.153,96.269    c1.306-1.225,3.381-1.144,4.606,0.159c1.225,1.332,1.146,3.382-0.172,4.607c-2.942,2.742-4.034,7.481-3.462,13.687    c0.653,7.135,3.462,16.054,8.147,26.067c0.76,1.623,0.054,3.566-1.571,4.339c-1.637,0.772-3.582,0.054-4.327-1.571    c-5.004-10.703-8.04-20.342-8.746-28.251C161.869,107.025,163.613,100.477,168.153,96.269z M277.056,362.158h-42.124v37.093    h42.124V362.158z M231.657,355.61h48.673c1.812,0,3.274,1.464,3.274,3.274v40.366h41.725v-58.313    c0.013-1.198,0.691-2.37,1.864-2.929c27.943-13.473,51.482-34.641,67.884-60.735c15.842-25.241,25.028-55.144,25.028-87.174    c0-45.318-18.373-86.35-48.073-116.038c-29.688-29.689-70.721-48.061-116.039-48.061c-45.304,0-86.349,18.371-116.038,48.061    c-29.688,29.688-48.061,70.72-48.061,116.038c0,32.03,9.174,61.933,25.03,87.174c16.349,26.04,39.833,47.155,67.71,60.655    c1.172,0.479,2.023,1.65,2.023,3.009v58.313h41.725v-40.366C228.383,357.074,229.86,355.61,231.657,355.61z M167.288,193.241    c-1.198-1.196-2.862-1.942-4.699-1.942c-1.823,0-3.488,0.746-4.687,1.942c-1.184,1.198-1.93,2.876-1.93,4.687    c0,1.838,0.746,3.488,1.944,4.688c1.199,1.197,2.85,1.942,4.673,1.942c1.837,0,3.489-0.745,4.687-1.942    c1.197-1.199,1.942-2.85,1.942-4.688C169.218,196.091,168.472,194.439,167.288,193.241z M173.252,206.102    c-0.359,0.479-0.731,0.906-1.158,1.332c-2.423,2.449-5.791,3.941-9.505,3.941c-3.701,0-7.07-1.492-9.505-3.941    c-2.423-2.424-3.927-5.778-3.927-9.506c0-1.729,0.332-3.381,0.918-4.898c-1.571-1.57-2.848-3.223-3.808-4.873    c-1.423-2.502-2.168-5.111-2.168-7.775c0-11.103,13.032-20.768,34.095-27.426c2.183-0.69,4.473-1.357,6.815-1.996    c-1.225-2.103-2.355-4.18-3.408-6.229c-10.171-19.597-12.568-35.653-4.726-43.481c7.828-7.829,23.884-5.459,43.493,4.712    c2.037,1.065,4.115,2.211,6.231,3.437c2.357-8.76,5.14-16.402,8.24-22.553c-1.463-1.758-2.356-4.021-2.356-6.498    c0-2.769,1.132-5.297,2.957-7.108c1.811-1.837,4.339-2.956,7.122-2.956c1.637,0,3.182,0.399,4.54,1.064    c1.051-0.691,2.13-1.251,3.222-1.703c1.863-0.772,3.767-1.171,5.671-1.171c11.09,0,20.769,13.046,27.425,34.106    c0.692,2.186,1.357,4.447,1.984,6.818c2.116-1.226,4.192-2.371,6.229-3.437c19.598-10.171,35.667-12.541,43.495-4.712    c7.828,7.828,5.444,23.885-4.728,43.481c-1.064,2.05-2.195,4.127-3.42,6.256c5.977,1.599,11.422,3.383,16.229,5.353l0.092-0.08    c1.826-1.837,4.354-2.955,7.137-2.955c2.781,0,5.313,1.118,7.135,2.955c1.812,1.812,2.943,4.34,2.943,7.109    c0,0.932-0.119,1.863-0.359,2.716c2.13,1.837,3.834,3.755,5.099,5.724c1.73,2.743,2.649,5.593,2.649,8.574    c0,11.078-13.046,20.742-34.108,27.425c-2.183,0.693-4.46,1.332-6.815,1.971c1.225,2.13,2.369,4.208,3.42,6.231    c10.172,19.597,12.556,35.652,4.728,43.48c-7.828,7.854-23.897,5.459-43.495-4.713c-2.037-1.065-4.113-2.209-6.243-3.434    c-3.129,11.688-7.044,21.354-11.49,28.275c1.225,1.892,1.944,4.127,1.944,6.524c0,3.302-1.345,6.284-3.515,8.44    c-2.184,2.183-5.166,3.541-8.467,3.541c-3.289,0-6.284-1.358-8.44-3.516c-0.772-0.771-1.439-1.648-1.985-2.582    c-10.077-1.863-18.837-14.617-24.987-34.268c-0.641-2.051-1.265-4.207-1.852-6.391c-2.116,1.199-4.194,2.343-6.231,3.408    c-19.609,10.172-35.666,12.567-43.493,4.713c-7.842-7.828-5.445-23.884,4.726-43.48c1.065-2.023,2.197-4.127,3.422-6.231    C180.827,208.658,176.886,207.407,173.252,206.102z M364.391,370.175c1.225,0,2.516-0.799,2.928-1.837    c1.092-2.184-0.572-4.714-2.928-4.714h-6.551c-1.225,0-2.517,0.798-2.943,1.837c-1.077,2.184,0.574,4.714,2.943,4.714H364.391z     M390.55,370.175c1.239,0,2.53-0.799,2.942-1.837c1.092-2.184-0.572-4.714-2.942-4.714h-6.536c-1.239,0-2.531,0.798-2.943,1.837    c-1.091,2.184,0.574,4.714,2.943,4.714H390.55z M126.537,432.96c1.237,0,2.529-0.827,2.941-1.864    c1.091-2.185-0.572-4.687-2.941-4.687h-6.55c-1.225,0-2.517,0.798-2.929,1.837c-1.091,2.184,0.558,4.714,2.929,4.714H126.537z     M152.709,432.96c1.225,0,2.53-0.827,2.93-1.864c1.091-2.185-0.56-4.687-2.93-4.687h-6.549c-1.225,0-2.53,0.798-2.929,1.837    c-1.093,2.184,0.558,4.714,2.929,4.714H152.709z M178.871,432.96c1.237,0,2.528-0.827,2.942-1.864    c1.091-2.185-0.574-4.687-2.942-4.687h-6.537c-1.239,0-2.53,0.798-2.943,1.837c-1.091,2.184,0.572,4.714,2.943,4.714H178.871z     M126.537,412.03c1.237,0,2.529-0.798,2.941-1.837c1.091-2.183-0.572-4.713-2.941-4.713h-6.55c-1.225,0-2.517,0.8-2.929,1.837    c-1.091,2.185,0.558,4.713,2.929,4.713H126.537z M152.709,412.03c1.225,0,2.53-0.798,2.93-1.837    c1.091-2.183-0.56-4.713-2.93-4.713h-6.549c-1.225,0-2.53,0.8-2.929,1.837c-1.093,2.185,0.558,4.713,2.929,4.713H152.709z     M178.871,412.03c1.237,0,2.528-0.798,2.942-1.837c1.091-2.183-0.574-4.713-2.942-4.713h-6.537c-1.239,0-2.53,0.8-2.943,1.837    c-1.091,2.185,0.572,4.713,2.943,4.713H178.871z M126.537,391.102c1.237,0,2.529-0.799,2.941-1.836    c1.091-2.184-0.572-4.713-2.941-4.713h-6.55c-1.225,0-2.517,0.799-2.929,1.838c-1.091,2.183,0.558,4.711,2.929,4.711H126.537z     M152.709,391.102c1.225,0,2.53-0.799,2.93-1.836c1.091-2.184-0.56-4.713-2.93-4.713h-6.549c-1.225,0-2.53,0.799-2.929,1.838    c-1.093,2.183,0.558,4.711,2.929,4.711H152.709z M178.871,391.102c1.237,0,2.528-0.799,2.942-1.836    c1.091-2.184-0.574-4.713-2.942-4.713h-6.537c-1.239,0-2.53,0.799-2.943,1.838c-1.091,2.183,0.572,4.711,2.943,4.711H178.871z     M126.537,370.175c1.237,0,2.529-0.799,2.941-1.837c1.091-2.184-0.572-4.714-2.941-4.714h-6.55c-1.225,0-2.517,0.798-2.929,1.837    c-1.091,2.184,0.558,4.714,2.929,4.714H126.537z M152.709,370.175c1.225,0,2.53-0.799,2.93-1.837    c1.091-2.184-0.56-4.714-2.93-4.714h-6.549c-1.225,0-2.53,0.798-2.929,1.837c-1.093,2.184,0.558,4.714,2.929,4.714H152.709z     M178.871,370.175c1.237,0,2.528-0.799,2.942-1.837c1.091-2.184-0.574-4.714-2.942-4.714h-6.537c-1.239,0-2.53,0.798-2.943,1.837    c-1.091,2.184,0.572,4.714,2.943,4.714H178.871z M338.217,432.96c1.238,0,2.527-0.827,2.942-1.864    c1.091-2.185-0.574-4.687-2.942-4.687h-6.537c-1.238,0-2.53,0.798-2.942,1.837c-1.092,2.184,0.571,4.714,2.942,4.714H338.217z     M364.391,432.96c1.225,0,2.516-0.827,2.928-1.864c1.092-2.185-0.572-4.687-2.928-4.687h-6.551c-1.225,0-2.517,0.798-2.943,1.837    c-1.077,2.184,0.574,4.714,2.943,4.714H364.391z M390.55,432.96c1.239,0,2.53-0.827,2.942-1.864    c1.092-2.185-0.572-4.687-2.942-4.687h-6.536c-1.239,0-2.531,0.798-2.943,1.837c-1.091,2.184,0.574,4.714,2.943,4.714H390.55z     M338.217,412.03c1.238,0,2.527-0.798,2.942-1.837c1.091-2.183-0.574-4.713-2.942-4.713h-6.537c-1.238,0-2.53,0.8-2.942,1.837    c-1.092,2.185,0.571,4.713,2.942,4.713H338.217z M364.391,412.03c1.225,0,2.516-0.798,2.928-1.837    c1.092-2.183-0.572-4.713-2.928-4.713h-6.551c-1.225,0-2.517,0.8-2.943,1.837c-1.077,2.185,0.574,4.713,2.943,4.713H364.391z     M390.55,412.03c1.239,0,2.53-0.798,2.942-1.837c1.092-2.183-0.572-4.713-2.942-4.713h-6.536c-1.239,0-2.531,0.8-2.943,1.837    c-1.091,2.185,0.574,4.713,2.943,4.713H390.55z M338.217,391.102c1.238,0,2.527-0.799,2.942-1.836    c1.091-2.184-0.574-4.713-2.942-4.713h-6.537c-1.238,0-2.53,0.799-2.942,1.838c-1.092,2.183,0.571,4.711,2.942,4.711H338.217z     M364.391,391.102c1.225,0,2.516-0.799,2.928-1.836c1.092-2.184-0.572-4.713-2.928-4.713h-6.551c-1.225,0-2.517,0.799-2.943,1.838    c-1.077,2.183,0.574,4.711,2.943,4.711H364.391z M390.55,391.102c1.239,0,2.53-0.799,2.942-1.836    c1.092-2.184-0.572-4.713-2.942-4.713h-6.536c-1.239,0-2.531,0.799-2.943,1.838c-1.091,2.183,0.574,4.711,2.943,4.711H390.55z     M331.68,363.624c-1.238,0-2.53,0.798-2.942,1.837c-1.092,2.184,0.571,4.714,2.942,4.714h6.537c1.238,0,2.527-0.799,2.942-1.837    c1.091-2.184-0.574-4.714-2.942-4.714H331.68z M162.588,184.481c3.701,0,7.07,1.519,9.505,3.941    c2.423,2.45,3.941,5.805,3.941,9.505c0,0.746-0.054,1.466-0.174,2.184c3.875,1.385,8.109,2.664,12.675,3.834    c4.726-7.535,10.411-15.496,16.907-23.564c-6.496-8.093-12.167-16.027-16.907-23.563c-2.917,0.744-5.712,1.544-8.374,2.369    c-18.239,5.777-29.515,13.286-29.515,21.193c0,1.518,0.438,3.035,1.29,4.527c0.534,0.905,1.199,1.837,2.011,2.742    C156.305,185.68,159.314,184.481,162.588,184.481z" style="fill-rule:evenodd;clip-rule:evenodd;"/>
</g>
</g>
<g id="Layer_1"/>
</svg>