<?xml version="1.0" encoding="utf-8"?>
<svg xmlns="http://www.w3.org/2000/svg" xmlns:xlink="http://www.w3.org/1999/xlink" style="margin: auto; background: rgb(255, 255, 255); display: block; shape-rendering: auto;" width="207px" height="207px" viewBox="0 0 100 100" preserveAspectRatio="xMidYMid">
<g transform="rotate(0 50 50)">
  <rect x="47.5" y="29" rx="2.5" ry="7" width="5" height="14" fill="#0d1117">
    <animate attributeName="opacity" values="1;0" keyTimes="0;1" dur="1.7857142857142856s" begin="-1.6233766233766234s" repeatCount="indefinite"></animate>
  </rect>
</g><g transform="rotate(32.72727272727273 50 50)">
  <rect x="47.5" y="29" rx="2.5" ry="7" width="5" height="14" fill="#0d1117">
    <animate attributeName="opacity" values="1;0" keyTimes="0;1" dur="1.7857142857142856s" begin="-1.461038961038961s" repeatCount="indefinite"></animate>
  </rect>
</g><g transform="rotate(65.45454545454545 50 50)">
  <rect x="47.5" y="29" rx="2.5" ry="7" width="5" height="14" fill="#0d1117">
    <animate attributeName="opacity" values="1;0" keyTimes="0;1" dur="1.7857142857142856s" begin="-1.2987012987012987s" repeatCount="indefinite"></animate>
  </rect>
</g><g transform="rotate(98.18181818181819 50 50)">
  <rect x="47.5" y="29" rx="2.5" ry="7" width="5" height="14" fill="#0d1117">
    <animate attributeName="opacity" values="1;0" keyTimes="0;1" dur="1.7857142857142856s" begin="-1.1363636363636362s" repeatCount="indefinite"></animate>
  </rect>
</g><g transform="rotate(130.9090909090909 50 50)">
  <rect x="47.5" y="29" rx="2.5" ry="7" width="5" height="14" fill="#0d1117">
    <animate attributeName="opacity" values="1;0" keyTimes="0;1" dur="1.7857142857142856s" begin="-0.974025974025974s" repeatCount="indefinite"></animate>
  </rect>
</g><g transform="rotate(163.63636363636363 50 50)">
  <rect x="47.5" y="29" rx="2.5" ry="7" width="5" height="14" fill="#0d1117">
    <animate attributeName="opacity" values="1;0" keyTimes="0;1" dur="1.7857142857142856s" begin="-0.8116883116883117s" repeatCount="indefinite"></animate>
  </rect>
</g><g transform="rotate(196.36363636363637 50 50)">
  <rect x="47.5" y="29" rx="2.5" ry="7" width="5" height="14" fill="#0d1117">
    <animate attributeName="opacity" values="1;0" keyTimes="0;1" dur="1.7857142857142856s" begin="-0.6493506493506493s" repeatCount="indefinite"></animate>
  </rect>
</g><g transform="rotate(229.0909090909091 50 50)">
  <rect x="47.5" y="29" rx="2.5" ry="7" width="5" height="14" fill="#0d1117">
    <animate attributeName="opacity" values="1;0" keyTimes="0;1" dur="1.7857142857142856s" begin="-0.487012987012987s" repeatCount="indefinite"></animate>
  </rect>
</g><g transform="rotate(261.8181818181818 50 50)">
  <rect x="47.5" y="29" rx="2.5" ry="7" width="5" height="14" fill="#0d1117">
    <animate attributeName="opacity" values="1;0" keyTimes="0;1" dur="1.7857142857142856s" begin="-0.3246753246753247s" repeatCount="indefinite"></animate>
  </rect>
</g><g transform="rotate(294.54545454545456 50 50)">
  <rect x="47.5" y="29" rx="2.5" ry="7" width="5" height="14" fill="#0d1117">
    <animate attributeName="opacity" values="1;0" keyTimes="0;1" dur="1.7857142857142856s" begin="-0.16233766233766234s" repeatCount="indefinite"></animate>
  </rect>
</g><g transform="rotate(327.27272727272725 50 50)">
  <rect x="47.5" y="29" rx="2.5" ry="7" width="5" height="14" fill="#0d1117">
    <animate attributeName="opacity" values="1;0" keyTimes="0;1" dur="1.7857142857142856s" begin="0s" repeatCount="indefinite"></animate>
  </rect>
</g>
<!-- [ldio] generated by https://loading.io/ --></svg>